<svg xmlns="http://www.w3.org/2000/svg" fill-rule="evenodd" stroke-linejoin="round" stroke-miterlimit="2" clip-rule="evenodd" viewBox="0 0 129 129"><rect width="128" height="128" x=".613" y=".841" fill="none"/><path fill="#f2af0d" d="M124.127,23.611c1.5,-1.501 2.343,-3.536 2.343,-5.657c0,-2.122 -0.843,-4.157 -2.343,-5.657c-2.295,-2.295 -4.94,-4.94 -7.235,-7.235c-1.5,-1.5 -3.535,-2.343 -5.657,-2.343c-2.122,-0 -4.156,0.843 -5.657,2.343c-18.398,18.398 -76.125,76.126 -89.592,89.592c-0.75,0.75 -1.171,1.768 -1.171,2.829c-0,1.061 0.421,2.078 1.171,2.828c3.493,3.493 9.399,9.399 12.892,12.892c0.75,0.75 1.767,1.171 2.828,1.171c1.061,0 2.079,-0.421 2.829,-1.171c13.466,-13.467 71.194,-71.194 89.592,-89.592Z"/><path fill="#f9d786" d="M34.123,113.615c1.071,-1.071 1.445,-2.656 0.966,-4.093c-0.265,-0.796 -0.557,-1.671 -0.805,-2.416c-0.378,-1.134 -1.244,-2.04 -2.359,-2.469c-1.125,-0.432 -2.573,-0.989 -3.677,-1.414c-1.057,-0.406 -1.891,-1.241 -2.298,-2.298c-0.424,-1.102 -0.98,-2.549 -1.413,-3.673c-0.429,-1.118 -1.337,-1.984 -2.474,-2.361c-0.74,-0.246 -1.609,-0.534 -2.398,-0.796c-1.436,-0.476 -3.018,-0.101 -4.088,0.969c-0.315,0.314 -0.641,0.64 -0.947,0.946c-0.967,0.967 -1.685,2.155 -2.092,3.461c-1.942,6.23 -7.782,24.962 -7.782,24.962c0,-0 18.732,-5.84 24.962,-7.782c1.306,-0.407 2.494,-1.125 3.461,-2.092c0.305,-0.306 0.63,-0.63 0.944,-0.944Z"/><path fill-opacity=".25" d="M101.914,24.447l-74.548,74.547c-0.78,0.781 -0.78,2.048 0,2.829c0.781,0.78 2.048,0.78 2.829,-0l74.547,-74.548c0.781,-0.78 0.781,-2.048 0,-2.828c-0.781,-0.781 -2.048,-0.781 -2.828,-0Z"/><path fill="#404040" d="M4.756,124.433l5.191,-16.65l11.459,11.459l-16.65,5.191Z"/><path fill="#404040" d="M4.756 126.962l42.351 0c1.104 0 2-.897 2-2 0-1.104-.896-2-2-2l-42.351 0c-1.104 0-2 .896-2 2 0 1.103.896 2 2 2zM61.796 126.962l9.701-.009c1.103-.001 1.999-.898 1.998-2.002-.001-1.104-.898-1.999-2.002-1.998l-9.701.009c-1.104.001-1.999.898-1.998 2.001.001 1.104.898 2 2.002 1.999z"/><path fill="#404040" d="M4.756 126.962l42.351 0c1.104 0 2-.897 2-2 0-1.104-.896-2-2-2l-42.351 0c-1.104 0-2 .896-2 2 0 1.103.896 2 2 2zM61.796 126.962l9.701-.009c1.103-.001 1.999-.898 1.998-2.002-.001-1.104-.898-1.999-2.002-1.998l-9.701.009c-1.104.001-1.999.898-1.998 2.001.001 1.104.898 2 2.002 1.999z"/><path fill="#f25e0d" d="M124.127,23.611c1.5,-1.501 2.343,-3.536 2.343,-5.657c0,-2.122 -0.843,-4.157 -2.343,-5.657c-2.295,-2.295 -4.94,-4.94 -7.235,-7.235c-1.5,-1.5 -3.535,-2.343 -5.657,-2.343c-2.122,-0 -4.156,0.843 -5.657,2.343c-3.025,3.025 -6.135,6.135 -6.135,6.135l18.549,18.548c-0,0 3.109,-3.109 6.135,-6.134Z"/><path fill="#d5d5d5" d="M119.823,27.915l-18.549,-18.549l-6.973,6.973l18.549,18.549l6.973,-6.973Z"/></svg>