<svg xmlns="http://www.w3.org/2000/svg" viewBox="0 0 48 48"><g data-name="Sticky Notes"><path fill="#f8f9f9" d="M45,2V33a3,3,0,0,1-3,3H13V2Z"/><polygon fill="#bec6c6" points="36.42 36 34.32 46 3 39.42 9.99 6.14 13 6.77 13 36 36.42 36"/><path fill="#bec6c6" d="M42,36H23l16-5v2A3,3,0,0,0,42,36Z"/><circle cx="29" cy="8" r="2" fill="#6457ff"/><path fill="#bec6c6" d="M41 15H17a1 1 0 010-2H41a1 1 0 010 2zM41 19H25a1 1 0 010-2H41a1 1 0 010 2zM41 23H17a1 1 0 010-2H41a1 1 0 010 2zM29 27H17a1 1 0 010-2H29a1 1 0 010 2zM21 19H17a1 1 0 010-2h4a1 1 0 010 2z"/><path fill="#414141" d="M45,1H13a1,1,0,0,0-1,1V5.54l-1.8-.38A1,1,0,0,0,9,5.93L2,39.21a1,1,0,0,0,.77,1.19L34.11,47a1,1,0,0,0,1.19-.77L37.23,37H42a4,4,0,0,0,4-4V2A1,1,0,0,0,45,1ZM33.55,44.82,4.18,38.65,10.76,7.32,12,7.58V36a1,1,0,0,0,1,1H35.19Zm-4-9.82L38,32.36A4.5,4.5,0,0,0,38.54,35ZM44,33a2,2,0,0,1-4,0,19.65,19.65,0,0,0,0-2.3,1.63,1.63,0,0,0-.22-.37,2.68,2.68,0,0,0-.3-.23A2.89,2.89,0,0,0,39,30a.8.8,0,0,0-.15,0c-.3,0,1.51-.5-16,5H14V3H44Z"/></g></svg>